# xmcd
#
# Track frame offsets:
#	150
#	13385
#	25430
#	35833
#	47772
#	60540
#	74913
#	85652
#	98508
#	110812
#	122438
#	134241
#	147147
#	157700
#	171428
#	185492
#	199270
#
# Disc length: 2817 seconds
#
# Revision: 0
# Processed by: cddbd v1.5.2PL0 Copyright (c) Steve Scherf et al.
# Submitted via: EasyCDDAExtractor 16.0.9.1
#
DISCID=fd0aff11
DTITLE=Ray Charles - N-096 Ray Charles  Soul and Blues
DYEAR=1900
DGENRE=Blues
TTITLE0=Baby Won't You Please Come Home
TTITLE1=The Sun Is Gonna Shine Again
TTITLE2=Ain't That Fine
TTITLE3=Roll With Me Baby
TTITLE4=Blues Before Sunrise
TTITLE5=Some Day
TTITLE6=The Ego Song
TTITLE7=You'll Never Miss The Water
TTITLE8=I've Had My Fun
TTITLE9=What Have I Done 
TTITLE10=See See Rider
TTITLE11=The Snow Is Falling
TTITLE12=Hey Now
TTITLE13=The Midnight Hour
TTITLE14=Late In The Evening Blues
TTITLE15=Let Me Hold Your Hand
TTITLE16=Honey
EXTD=
EXTT0=
EXTT1=
EXTT2=
EXTT3=
EXTT4=
EXTT5=
EXTT6=
EXTT7=
EXTT8=
EXTT9=
EXTT10=
EXTT11=
EXTT12=
EXTT13=
EXTT14=
EXTT15=
EXTT16=
PLAYORDER=
